<?xml version="1.0" encoding="utf-8"?>
<!-- Generator: Adobe Illustrator 16.0.0, SVG Export Plug-In . SVG Version: 6.00 Build 0)  -->
<!DOCTYPE svg PUBLIC "-//W3C//DTD SVG 1.1//EN" "http://www.w3.org/Graphics/SVG/1.1/DTD/svg11.dtd">
<svg version="1.1" xmlns="http://www.w3.org/2000/svg" xmlns:xlink="http://www.w3.org/1999/xlink" x="0px" y="0px"
	 width="604.231px" height="352.087px" viewBox="0 0 604.231 352.087" enable-background="new 0 0 604.231 352.087"
	 xml:space="preserve">
<g id="Calque_1">
	<path fill="#A6CE39" d="M516.544,219.019c0,12.209-47.243,22.101-105.54,22.101c-58.266,0-105.522-9.892-105.522-22.101
		c0-12.208,47.257-22.116,105.522-22.116C469.301,196.902,516.544,206.811,516.544,219.019"/>
	<path fill="#A6CE39" d="M92.925,292.785c0,0,24.896,19.621,79.723,59.302c15.312-46.768,70.727-70.899,70.727-70.899
		l-73.537-38.443C131.725,250.437,108.965,263.709,92.925,292.785z"/>
	<g>
		<path fill="#00426B" d="M447.785,236.909L345.096,208.5c-25.685-7.102-77.014-11.419-128.982-9.841
			c-73.776,2.225-142.507,15.986-114.89,32.288l28.273,16.692c10.921-5.264,23.692-9.264,38.842-12.319
			c0.496-0.102,0.998-0.152,1.499-0.152c1.214,0,2.421,0.29,3.51,0.86l73.537,38.443c2.584,1.354,4.16,4.068,4.06,6.98
			c-0.009,0.249-0.046,0.492-0.079,0.736v37.063c83.907,47.668,225.882,23.104,252.855-22.556
			C518.433,271.769,488.741,248.247,447.785,236.909z M469.944,285.193c-25.494,25.293-110.374,33.775-162.852,9.017
			l-145.732-68.797c-22.014-10.391,16.287-20.278,67.188-22.528c39.136-1.716,79.881,1.481,99.611,7.188l108.579,31.342
			C468.387,250.554,486.704,268.535,469.944,285.193z"/>
	</g>
	<g>
		<path fill="#A6CE39" d="M45.193,75.819V53.333h6.902v55.409h-6.902v-27.19H13.476v27.19H6.573V53.333h6.902v22.487H45.193z"/>
		<path fill="#A6CE39" d="M71.978,108.741h-6.902V53.333h6.902V108.741z"/>
		<path fill="#A6CE39" d="M91.451,108.741h-6.902V53.333h10.189c5.341,0,10.846,0.147,15.366,2.939
			c4.602,2.866,6.984,7.716,6.984,12.64c0,4.483-2.054,9.039-5.916,11.905c-4.191,3.086-9.532,3.674-14.708,3.674h-5.012V108.741z
			 M91.451,78.759h4.602c7.642,0,14.133-2.058,14.133-9.994c0-9.039-8.135-9.7-16.187-9.7h-2.547V78.759z"/>
		<path fill="#A6CE39" d="M132.78,108.741h-6.902V53.333h10.189c5.341,0,10.846,0.147,15.366,2.939
			c4.602,2.866,6.984,7.716,6.984,12.64c0,4.483-2.054,9.039-5.916,11.905c-4.191,3.086-9.532,3.674-14.708,3.674h-5.012V108.741z
			 M132.78,78.759h4.602c7.642,0,14.133-2.058,14.133-9.994c0-9.039-8.135-9.7-16.187-9.7h-2.547V78.759z"/>
		<path fill="#A6CE39" d="M228.669,81.11c0,15.946-14.626,28.586-32.292,28.586c-17.666,0-32.292-12.64-32.292-28.586
			c0-15.873,14.626-28.733,32.292-28.733C214.043,52.377,228.669,65.237,228.669,81.11z M170.987,81.037
			c0,12.492,11.339,22.928,25.39,22.928s25.39-10.436,25.39-22.928c0-12.566-11.175-22.928-25.39-22.928
			C182.162,58.109,170.987,68.471,170.987,81.037z"/>
		<path fill="#A6CE39" d="M238.035,53.333h11.668c9.285,0,16.845,1.102,24.158,6.687c7.066,5.438,10.271,12.86,10.271,21.091
			c0,8.083-3.287,15.212-10.106,20.649c-7.396,5.879-14.791,6.981-24.486,6.981h-11.504V53.333z M249.95,103.009
			c7.56,0,13.887-0.956,19.556-5.732c5.095-4.262,7.724-10.067,7.724-16.24c0-6.32-2.712-12.419-8.053-16.608
			c-5.669-4.482-11.915-5.364-19.228-5.364h-5.012v43.945H249.95z"/>
		<path fill="#A6CE39" d="M300.646,108.741h-6.902V53.333h8.957c11.75,0,22.679,2.792,22.679,15.285
			c0,8.524-5.999,14.55-15.53,15.285l19.721,24.838h-8.463l-18.734-24.324h-1.726V108.741z M300.646,78.979h2.136
			c7.806,0,15.694-1.323,15.694-9.921c0-9.112-7.478-9.994-15.776-9.994h-2.054V78.979z"/>
		<path fill="#A6CE39" d="M399.739,81.11c0,15.946-14.626,28.586-32.292,28.586s-32.292-12.64-32.292-28.586
			c0-15.873,14.626-28.733,32.292-28.733S399.739,65.237,399.739,81.11z M342.058,81.037c0,12.492,11.339,22.928,25.39,22.928
			s25.391-10.436,25.391-22.928c0-12.566-11.176-22.928-25.391-22.928S342.058,68.471,342.058,81.037z"/>
		<path fill="#A6CE39" d="M417.157,50.173l22.515,46.517l22.597-46.517l12.571,58.568h-7.066l-7.971-37.478h-0.164l-19.967,39.756
			l-19.885-39.756h-0.164l-7.971,37.478h-7.066L417.157,50.173z"/>
		<path fill="#A6CE39" d="M482.727,53.333h32.128v5.732h-25.226v16.461h24.485v5.732h-24.485v21.752h25.226v5.732h-32.128V53.333z"
			/>
	</g>
	<g>
		<path fill="#00426B" d="M6.577,116.477h25.813c13.939,0,23.576,6.453,23.576,21.339c0,15.316-8.26,22.027-22.974,22.027h-9.551
			v21.511H6.577V116.477z M23.442,146.249h2.839c6.109,0,12.132,0,12.132-7.916c0-8.174-5.593-8.26-12.132-8.26h-2.839V146.249z"/>
		<path fill="#00426B" d="M131.943,147.711c0,20.995-15.058,35.794-35.88,35.794s-35.88-14.799-35.88-35.794
			c0-19.618,17.208-33.385,35.88-33.385C114.734,114.326,131.943,128.093,131.943,147.711z M77.735,147.797
			c0,11.186,8.26,19.36,18.328,19.36c10.067,0,18.328-8.174,18.328-19.36c0-8.949-8.261-17.123-18.328-17.123
			C85.996,130.674,77.735,138.849,77.735,147.797z"/>
		<path fill="#00426B" d="M193.723,181.354h-20.995l-15.918-24.953h-0.172v24.953h-16.865v-64.877h25.211
			c12.821,0,22.543,6.109,22.543,19.962c0,8.949-4.99,16.692-14.197,18.327L193.723,181.354z M156.638,145.56h1.635
			c5.507,0,11.702-1.033,11.702-8.088s-6.195-8.088-11.702-8.088h-1.635V145.56z"/>
		<path fill="#00426B" d="M198.283,116.477h16.865l30.89,39.667h0.172v-39.667h16.865v64.877H246.21l-30.89-39.752h-0.172v39.752
			h-16.865V116.477z"/>
		<path fill="#00426B" d="M290.953,181.354h-16.865v-64.877h16.865V181.354z"/>
		<path fill="#00426B" d="M348.344,138.246c-3.441-4.646-9.035-7.142-14.8-7.142c-10.325,0-17.295,7.916-17.295,17.983
			c0,10.239,7.056,17.639,17.554,17.639c5.506,0,11.013-2.667,14.541-6.884v20.221c-5.593,1.721-9.637,3.011-14.886,3.011
			c-9.035,0-17.639-3.441-24.351-9.551c-7.142-6.453-10.411-14.886-10.411-24.522c0-8.863,3.355-17.381,9.551-23.749
			c6.367-6.539,15.574-10.497,24.694-10.497c5.422,0,10.412,1.205,15.402,3.27V138.246z"/>
		<path fill="#00426B" d="M399.969,141.516v-25.039h16.865v64.877h-16.865v-26.588h-24.351v26.588h-16.864v-64.877h16.864v25.039
			H399.969z"/>
		<path fill="#00426B" d="M444.712,130.76v10.842h19.017v14.283h-19.017v11.186h20.049v14.283h-36.913v-64.877h36.913v14.283
			H444.712z"/>
		<path fill="#00426B" d="M500.984,181.354h-16.865V130.76h-13.938v-14.283h44.743v14.283h-13.939V181.354z"/>
	</g>
	<path opacity="0.3" fill="#00426B" d="M567.028,78.715c-6.902-5.467-13.777-10.415-20.187-15.25
		c-4.794-3.137-9.2-6.39-13.221-9.678c6.262-6.88,12.795-13.071,18.98-18.517C573.963,16.85,593.974,5.562,604.231,0
		c-10.273,4.417-30.486,14.706-52.347,32.619c-6.645,5.598-13.731,12.022-20.518,19.288c-14.364-12.24-23.294-24.75-26.106-33.385
		c1.894,8.566,10.438,22.006,24.721,34.889c-9.668,10.584-18.605,22.903-24.629,37.014c-5.264-11.312-5.873-22.132-4.994-28.174
		c-1.01,3.725-1.422,9.862-0.172,17.033c-0.619,4.936-1.142,13.387,0.839,23.432c-0.802,2.878-1.485,5.817-2.017,8.827
		c-1.472,16.103,3.428,30.765,11.061,43.941c-1.985,9.876-1.849,20.497,2.352,29.943c0.748,1.729,1.604,3.358,2.534,4.914
		c-1.538,5.201-2.31,10.528-1.859,15.986c1.134,9.315,6.4,15.189,12.396,19.5c-2.121,8.985-2.074,16.791-1.738,21.308
		c0.17-4.519,0.574-11.996,2.909-20.492c3.149,2.135,6.434,3.882,9.384,5.5c-3.471,8.462-4.419,16.235-5.593,20.333
		c1.7-4.037,3.167-11.567,6.897-19.612c1.052,0.587,2.051,1.163,2.966,1.739c9.946,5.441,17.563,10.464,21.837,14.734
		c-3.908-4.614-11.349-10.075-21.017-15.833c-0.979-0.657-2.038-1.313-3.146-1.979c1.93-3.913,4.427-7.905,7.763-11.645
		c11.446,9.162,21.299,16.966,27.426,23.244c-2.287,2.669-6.041,3.13-7.845,4.979c1.91-1.705,5.633-1.795,8.266-4.545
		c1.777,1.853,3.222,3.572,4.268,5.148c-0.903-1.712-2.226-3.575-3.895-5.575c0.272-0.327,0.536-0.676,0.775-1.076
		c2.204-4.499-0.228-10.09-2.842-15.04c-3.101-6.007-7.773-11.778-13.138-17.647c1.842-1.11,3.748-2.159,5.753-3.086
		c4.34-2.111,11.597-6.541,9.041-14.086c-2.613-4.143-5.518-7.792-8.59-11.179c1.603-0.941,3.228-1.856,4.875-2.739
		c5.355-3.653,12.929-5.612,16.232-12.039c2.9-7.088-6.329-12.373-11.123-17.141c-6.413-4.454-12.998-8.614-19.466-12.709
		c3.326-2.583,6.815-4.944,10.454-7.05c6.815-4.551,14.415-7.6,20.752-13.886c7.824-7.599,1.099-18.86-4.435-23.53
		c-4.419-4.269-8.965-8.173-13.517-11.837c12.942-10.589,23.841-18.377,29.893-22.886C592.219,60.914,580.701,68.224,567.028,78.715
		z M532.198,55.367c3.748,3.231,7.855,6.41,12.314,9.448c6.352,5.005,13.243,10.153,20.136,15.74
		c-1.937,1.512-3.909,3.079-5.916,4.713c-10.523,8.259-21.786,18.979-31.049,31.951c-4.211-3.441-8.087-7.046-11.464-10.932
		c-3.721-3.887-6.642-7.972-8.922-12.054C513.045,79.615,522.204,66.598,532.198,55.367z M541.121,200.072
		c0.864-0.996,1.768-1.973,2.701-2.933c0.097,0.103,0.197,0.208,0.294,0.311c3.782,3.831,7.502,7.459,10.988,11.001
		c-1.82,1.136-3.461,2.36-4.68,3.764c-1.802,1.504-3.414,3.074-4.876,4.684c-1.797-1.524-3.63-3.075-5.491-4.657
		c-1.604-1.456-3.284-2.91-4.99-4.388C536.804,205.212,538.802,202.602,541.121,200.072z M533.468,206.462
		c-5.675-4.945-11.439-10.249-15.498-16.854c1.628-4.685,3.893-9.33,6.431-13.911c5.9,7.132,12.093,13.685,17.725,19.645
		c-0.858,0.919-1.695,1.849-2.496,2.798C537.245,200.857,535.213,203.649,533.468,206.462z M543.82,193.583
		c-5.747-6.256-12.013-13.129-17.911-20.552c1.86-3.222,3.819-6.411,5.75-9.555c1.154-1.949,2.378-3.847,3.658-5.702
		c4.067,3.925,8.312,7.72,12.617,11.356c3.992,3.532,8.188,7.403,12.125,11.438C554.1,184.454,548.579,188.801,543.82,193.583z
		 M529.593,161.052c-1.872,3.112-3.79,6.275-5.63,9.49c-3.783-4.917-7.359-10.065-10.491-15.425c0.618-2.765,1.4-5.48,2.33-8.098
		c0.874-2.562,1.873-5.058,2.939-7.514c4.262,5.518,9.119,10.881,14.308,16.039C531.826,157.34,530.671,159.178,529.593,161.052z
		 M520.133,136.427c2.452-5.188,5.287-10.134,8.41-14.819c6.568,5.294,13.87,10.237,21.378,15.105
		c-5.537,4.776-10.616,10.211-14.965,16.134C529.558,147.542,524.535,142.055,520.133,136.427z M517.888,133.467
		c-3.352-4.56-6.28-9.204-8.612-13.919c-2.516-4.768-4.317-9.464-5.632-13.937c0.754-3.017,1.664-5.975,2.711-8.871
		c1.966,3.563,4.421,7.125,7.479,10.563c3.524,4.358,7.663,8.409,12.214,12.26C523.058,123.954,520.302,128.589,517.888,133.467z
		 M500.243,79.615c0.749,4.145,2.055,8.624,4.124,13.181c-0.842,2.116-1.611,4.276-2.313,6.471
		C500.376,91.144,500.224,84.202,500.243,79.615z M502.139,112.907c0.177-1.112,0.379-2.216,0.599-3.313
		c1.018,3.368,2.327,6.846,4.035,10.383c2.482,5.589,5.794,11.102,9.696,16.487c-1.293,2.831-2.477,5.735-3.52,8.718
		c-0.671,1.864-1.272,3.794-1.807,5.763C504.934,139.17,501.103,126.432,502.139,112.907z M515.451,184.829
		c-3.529-7.807-4.088-16.598-2.829-25.138c3.012,4.731,6.338,9.261,9.807,13.585c-2.37,4.31-4.53,8.713-6.189,13.211
		C515.969,185.94,515.697,185.394,515.451,184.829z M515.509,206.604c-0.414-4.475,0.138-8.94,1.34-13.376
		c4.347,6.158,9.918,11.018,15.28,15.484c-2.887,5.121-4.832,10.265-6.134,15.123C520.745,219.723,516.367,214.42,515.509,206.604z
		 M536.649,230.725c-3.034-1.793-6.348-3.701-9.439-5.969c1.446-4.755,3.514-9.774,6.489-14.737c1.55,1.286,3.071,2.548,4.522,3.807
		c1.996,1.616,3.959,3.193,5.883,4.735C540.823,222.521,538.433,226.681,536.649,230.725z M570.662,227.539
		c2.809,4.795,5.226,10.07,3.485,14.134c-0.176,0.352-0.379,0.665-0.592,0.964c-5.723-6.704-15.257-14.924-26.339-24.326
		c1.344-1.374,2.808-2.708,4.417-3.98c1.698-1.367,3.513-2.665,5.409-3.894C562.562,216.154,567.364,221.694,570.662,227.539z
		 M570.561,192.885c2.229,7.158-6.456,10.403-13.639,14.485c-3.42-3.658-7.064-7.367-10.734-11.21
		c-0.218-0.238-0.442-0.481-0.663-0.721c4.854-4.683,10.508-8.915,16.603-12.706C565.246,186.061,568.144,189.475,570.561,192.885z
		 M572.391,151.328c4.324,3.424,12.183,9.11,10.563,13.83c-0.852,3.329-9.419,7.298-13.915,10.061
		c-2.086,1.134-4.14,2.32-6.153,3.557c-3.961-4.131-8.153-7.915-12.345-11.786c-4.541-3.849-9.008-7.83-13.285-11.92
		c4.54-6.121,9.76-11.663,15.538-16.499C559.347,142.785,565.997,146.975,572.391,151.328z M579.218,93.312
		c5.484,5.053,11.073,13.097,5.794,19.105c-5.027,5.639-13.124,9.025-20.003,13.561c-4.292,2.47-8.474,5.342-12.455,8.546
		c-7.89-5.01-15.519-9.98-22.363-15.31c8.703-12.438,19.275-23.002,29.429-31.465c2.315-1.997,4.586-3.91,6.808-5.752
		C570.752,85.555,575.061,89.297,579.218,93.312z"/>
	<g>
		<path fill="#00A8DF" d="M119.012,253.443l-40.283-24.146c-23.923-14.347,13.853-30.761,70.734-30.461
			c4.294,0.021-5.308-0.539-14.212-0.728c-82.37-1.705-153.7,12.371-123.878,34.452l75.351,55.798
			C95.109,273.403,105.41,262.068,119.012,253.443z"/>
	</g>
</g>
<g id="typo_non_vecto" display="none">
	
		<text transform="matrix(1.1182 0 0 1 0 108.7441)" display="inline" fill="#A6CE39" font-family="'Futura-Book'" font-size="73.4828">HIPPODROME</text>
	
		<text transform="matrix(1 0 0 1 1.0703 181.3574)" display="inline" fill="#00426B" font-family="'Futura-Bold'" font-size="86.0447">PORNICHET</text>
	<text transform="matrix(1 0 0 1 4.9941 209.4883)" display="inline"><tspan x="0" y="0" fill="#00A8DF" font-family="'Futura-Light'" font-size="25.2191" letter-spacing="6">C</tspan><tspan x="21.411" y="0" fill="#00A8DF" font-family="'Futura-Light'" font-size="25.2191" letter-spacing="6">OURSES</tspan><tspan x="146.799" y="0" fill="#00A8DF" font-family="'Futura-Light'" font-size="25.2191" letter-spacing="6"> </tspan><tspan x="158.929" y="0" fill="#00A8DF" font-family="'Futura-Light'" font-size="25.2191" letter-spacing="6">-</tspan><tspan x="173.48" y="0" fill="#00A8DF" font-family="'Futura-Light'" font-size="25.2191" letter-spacing="6"> </tspan><tspan x="185.61" y="0" fill="#00A8DF" font-family="'Futura-Light'" font-size="25.2191" letter-spacing="6">LOISIRS - AF</tspan><tspan x="393.238" y="0" fill="#00A8DF" font-family="'Futura-Light'" font-size="25.2191" letter-spacing="5">F</tspan><tspan x="410.815" y="0" fill="#00A8DF" font-family="'Futura-Light'" font-size="25.2191" letter-spacing="6">AIRE</tspan><tspan x="485.489" y="0" fill="#00A8DF" font-family="'Futura-Light'" font-size="25.2191">S</tspan></text>
</g>
</svg>
