<svg id="Calque_1" data-name="Calque 1" xmlns="http://www.w3.org/2000/svg" width="72.38mm" height="37.16mm" viewBox="0 0 205.17 105.33"><defs><style>.cls-1,.cls-2,.cls-3{fill:#777c7e;}.cls-2{font-size:47.71px;font-family:BrannbollNyPersonalUseOnly, Brannboll Ny Personal Use Only;}.cls-3,.cls-4,.cls-5,.cls-6{fill-rule:evenodd;}.cls-4{fill:#1f4696;}.cls-5{fill:#ea5c6a;}.cls-6{fill:#46bedc;}</style></defs><path class="cls-1" d="M11.41,50.35a2.57,2.57,0,0,1,.19,1.39,3.19,3.19,0,0,1-.55,1.43,3.67,3.67,0,0,1-1.22,1.12A3.33,3.33,0,0,1,8,54.7a4.4,4.4,0,0,1-2.36-.84,6,6,0,0,1-1.84-2.12,9.08,9.08,0,0,1-.93-3.1,10.09,10.09,0,0,1,.31-3.77,13.54,13.54,0,0,1,2.68-5.18A16.35,16.35,0,0,1,10.19,36a20.23,20.23,0,0,1,5.42-2.17,23.63,23.63,0,0,1,5.82-.7,21,21,0,0,1,5.58.79,13.67,13.67,0,0,1,4.65,2.29,10.12,10.12,0,0,1,4,9.07,11,11,0,0,1-1.2,4.36,11.16,11.16,0,0,1-2.52,3.22,13.1,13.1,0,0,1-3.49,2.18,20.58,20.58,0,0,1-4,1.24,17.69,17.69,0,0,1-4,.35,16.46,16.46,0,0,1-3.65-.47q-1.82,6-4.6,8.92a7.86,7.86,0,0,1-6.85,2.53,4.85,4.85,0,0,1-3-1.2A3.91,3.91,0,0,1,1.1,64.17a4.21,4.21,0,0,1,.41-2.51,4.38,4.38,0,0,1,1.84-1.95,2.08,2.08,0,0,1,1.35-.24,1.44,1.44,0,0,1,1,.43,1.77,1.77,0,0,0-1.17.81A3,3,0,0,0,4,62.14a2.15,2.15,0,0,0,.28,1.36,1.35,1.35,0,0,0,1.17.64,3.57,3.57,0,0,0,2.36-.74,7.72,7.72,0,0,0,2-2.24,17.08,17.08,0,0,0,1.63-3.55c.47-1.4.93-3,1.38-4.63q1-3.82,1.81-6.61a29.56,29.56,0,0,1,1.79-4.6,8.16,8.16,0,0,1,2-2.7,4.15,4.15,0,0,1,2.65-.88,3.72,3.72,0,0,1,1.86.4,2.46,2.46,0,0,1,1,.93,4.21,4.21,0,0,0-2,1,6.48,6.48,0,0,0-1.5,2.22,24.7,24.7,0,0,0-1.34,4q-.64,2.46-1.5,6.22l-.43,1.77a11.7,11.7,0,0,0,5.1,0,10.44,10.44,0,0,0,4.13-1.88,9.29,9.29,0,0,0,2.7-3.25,9.2,9.2,0,0,0-.86-9.42,11,11,0,0,0-4.17-3.25,14.39,14.39,0,0,0-5.49-1.19,15.66,15.66,0,0,0-5.66.89,12.55,12.55,0,0,0-4.7,3,9.69,9.69,0,0,0-2.64,5.08,5.49,5.49,0,0,0,0,2.77,4.23,4.23,0,0,0,1.19,2,4.36,4.36,0,0,0,2,1A5.85,5.85,0,0,0,11.41,50.35Z" transform="translate(-1.06 -0.38)"/><path class="cls-1" d="M43.9,45.92a3.4,3.4,0,0,1,1.74.64,6.42,6.42,0,0,1,1.27,1.22,4.83,4.83,0,0,1,1.33.38A3.31,3.31,0,0,1,49.94,50,7.58,7.58,0,0,1,50.39,53a13.61,13.61,0,0,1-.62,3.53,22.74,22.74,0,0,1-1.48,3.69,5.34,5.34,0,0,0,2.53-.5A4.17,4.17,0,0,0,53,57.42a3.53,3.53,0,0,1,.59-1q.31-.33.48-.33c.11,0,.17.11.17.33a2.94,2.94,0,0,1-.29,1c-.25.51-.56,1.09-.91,1.76A7,7,0,0,1,51.7,61a5.66,5.66,0,0,1-2,1.27,5,5,0,0,1-2.74.17A18.46,18.46,0,0,1,44.86,65a11.44,11.44,0,0,1-2.41,1.87,7.16,7.16,0,0,1-2.6.88,5.45,5.45,0,0,1-2.68-.36,4.68,4.68,0,0,1-2.69-2.7,10.2,10.2,0,0,1-.69-4.38,18.92,18.92,0,0,1,1-5.11A20,20,0,0,1,37,50.38,12.6,12.6,0,0,1,40.16,47,5.16,5.16,0,0,1,43.9,45.92Zm1.48,16A5.46,5.46,0,0,1,43,59.68a8.63,8.63,0,0,1-1-3.15A11,11,0,0,1,42,53.1a8.69,8.69,0,0,1,1.15-3,10.08,10.08,0,0,0-2.39,2.29,16,16,0,0,0-1.86,3.12,17.13,17.13,0,0,0-1.14,3.44,13.34,13.34,0,0,0-.36,3.17A5.4,5.4,0,0,0,38,64.5a2,2,0,0,0,1.6,1.12,4,4,0,0,0,3.08-.86A12.11,12.11,0,0,0,45.38,61.9Zm2.53-11.78a1.38,1.38,0,0,0-1.45,0,2.73,2.73,0,0,0-1.05,1.24,6.74,6.74,0,0,0-.58,2,8.87,8.87,0,0,0,0,2.36,7.65,7.65,0,0,0,.6,2.24,3.91,3.91,0,0,0,1.31,1.67,21.21,21.21,0,0,0,1.29-3,16.28,16.28,0,0,0,.71-2.88,6.72,6.72,0,0,0,0-2.29A1.75,1.75,0,0,0,47.91,50.12Z" transform="translate(-1.06 -0.38)"/><path class="cls-1" d="M68.28,57.42c.58-1.31,1-1.94,1.34-1.91s.19.67-.38,1.91c-.16.35-.39.86-.69,1.55s-.68,1.43-1.12,2.24-.94,1.63-1.48,2.46a12.85,12.85,0,0,1-1.77,2.17,7.84,7.84,0,0,1-2,1.45,3.16,3.16,0,0,1-2.22.24,2.87,2.87,0,0,1-2.19-1.84,8.13,8.13,0,0,1-.53-3.48A16.78,16.78,0,0,1,58,58.08a17.05,17.05,0,0,1,1.67-3.81,9,9,0,0,1-1.91-.12,8.83,8.83,0,0,1-2.1-.65L54,57.42c-.25.6-.53.88-.84.83s-.34-.32-.11-.83l1.9-4.3a5.72,5.72,0,0,1-2.76-4.77,3.72,3.72,0,0,1,.69-2.24A2.82,2.82,0,0,1,55,45a2.77,2.77,0,0,1,1.77.33,2.1,2.1,0,0,1,.83,1.17,3.5,3.5,0,0,1,0,1.65,10.15,10.15,0,0,1-.5,1.77,3.52,3.52,0,0,0,2,.33A2.76,2.76,0,0,0,61,48.92l0,0c.48-.8,1-1.17,1.67-1.12a2.52,2.52,0,0,1,1.67.78,3.89,3.89,0,0,1,1,1.77,2.12,2.12,0,0,1-.28,1.86c-.51.7-1,1.49-1.53,2.36s-1,1.77-1.46,2.7A26.46,26.46,0,0,0,61,60a18.49,18.49,0,0,0-.74,2.43,5.44,5.44,0,0,0-.14,1.86,1.12,1.12,0,0,0,.71,1,2,2,0,0,0,1.82-.38A10,10,0,0,0,64.73,63a21.5,21.5,0,0,0,2-2.71A21.09,21.09,0,0,0,68.28,57.42Z" transform="translate(-1.06 -0.38)"/><path class="cls-1" d="M75.54,47.63c-.26,1.09-.58,2.32-1,3.7s-.79,2.81-1.24,4.27a43.13,43.13,0,0,1,3.72-5.39,13.34,13.34,0,0,1,3.22-2.91,7.32,7.32,0,0,1,3-1.14,3.32,3.32,0,0,1,2.32.5,2.62,2.62,0,0,1,1.07,2,7,7,0,0,1-.33,2.8,34.87,34.87,0,0,1-1.22,3.43c-.49,1.19-1,2.39-1.55,3.58s-1,2.28-1.38,3.24a10.14,10.14,0,0,0-.7,2.44q-.12,1,.51,1.17A2,2,0,0,0,83.6,65a9.75,9.75,0,0,0,1.91-1.66,19.58,19.58,0,0,0,2-2.63,25.06,25.06,0,0,0,1.74-3.24A5.67,5.67,0,0,1,90,56.08c.22-.29.39-.43.52-.43s.17.14.14.43a5.25,5.25,0,0,1-.43,1.34c-.25.63-.66,1.52-1.24,2.67a25.24,25.24,0,0,1-2.07,3.41,15.31,15.31,0,0,1-2.77,3,5.1,5.1,0,0,1-3.27,1.26,2.64,2.64,0,0,1-2-.76,4.16,4.16,0,0,1-1-2.12,10.17,10.17,0,0,1,0-3.22,25.41,25.41,0,0,1,1-4.11c.19-.54.4-1.13.64-1.76l.69-1.84c.23-.59.43-1.12.63-1.6s.31-.83.38-1.05a4.15,4.15,0,0,0-2.34,1.15,20.49,20.49,0,0,0-3,3.07,34.79,34.79,0,0,0-3,4.42A34.13,34.13,0,0,0,70.33,65l-.23.67a2.83,2.83,0,0,1-1.32,1.81,1.12,1.12,0,0,1-1.38-.31A4.18,4.18,0,0,1,66.57,65,9.87,9.87,0,0,1,67,61c.15-.58.42-1.35.78-2.32s.8-2.06,1.29-3.27,1-2.5,1.55-3.88,1-2.81,1.53-4.27a3.27,3.27,0,0,1,1-1.51,2.12,2.12,0,0,1,1.29-.55,1.14,1.14,0,0,1,1,.58A2.54,2.54,0,0,1,75.54,47.63Z" transform="translate(-1.06 -0.38)"/><path class="cls-1" d="M100.35,57.42c.57-1.31,1-2,1.29-1.94s.17.66-.34,1.94l-.69,1.52c-.3.67-.68,1.41-1.12,2.22A28.7,28.7,0,0,1,98,63.6a15.14,15.14,0,0,1-1.84,2.17,7.91,7.91,0,0,1-2.07,1.48,3.43,3.43,0,0,1-2.24.28,3.3,3.3,0,0,1-2.2-1.26,5.71,5.71,0,0,1-1-2.56,11.7,11.7,0,0,1,0-3.48,25.51,25.51,0,0,1,1-4.1,37,37,0,0,1,1.74-4.39,41.52,41.52,0,0,1,2.38-4.39c.48-.8,1-1.17,1.67-1.12A2.55,2.55,0,0,1,97.1,47a3.8,3.8,0,0,1,1,1.76,2.08,2.08,0,0,1-.28,1.86,27.81,27.81,0,0,0-1.53,2.43c-.54,1-1.05,2-1.53,3s-.91,2.06-1.31,3.1a21.2,21.2,0,0,0-.9,2.84,7.74,7.74,0,0,0-.27,2.17c0,.59.23.94.58,1.07a2.11,2.11,0,0,0,1.86-.38A9.43,9.43,0,0,0,96.82,63a21.27,21.27,0,0,0,2-2.71A29.51,29.51,0,0,0,100.35,57.42Zm2.86-17.18a3,3,0,0,1-.93,2.24,3.16,3.16,0,0,1-4.44,0,3.11,3.11,0,0,1,0-4.44,3.19,3.19,0,0,1,4.44,0A3,3,0,0,1,103.21,40.24Z" transform="translate(-1.06 -0.38)"/><path class="cls-1" d="M118.1,57.42c.31-.64.63-1,.93-1.08s.31.28,0,1.08a18.19,18.19,0,0,1-2.5,4.7,16.82,16.82,0,0,1-3.2,3.26,11.73,11.73,0,0,1-3.51,1.87,9.65,9.65,0,0,1-3.5.47,7.52,7.52,0,0,1-3.11-.83,6.07,6.07,0,0,1-2.31-2.17,6.25,6.25,0,0,1-1-3.32,13.57,13.57,0,0,1,.52-4,18.39,18.39,0,0,1,1.72-4.13,17.5,17.5,0,0,1,2.65-3.62,13.33,13.33,0,0,1,3.26-2.53,6.8,6.8,0,0,1,3.63-.86,4.76,4.76,0,0,1,3.58,1.48,5,5,0,0,1,1.14,3.13,8.22,8.22,0,0,1-.76,3.62,7.75,7.75,0,0,1-2.15,2.94,4.87,4.87,0,0,1-2.19,1.07,3.79,3.79,0,0,1-2-.12,2.51,2.51,0,0,1-1.33-1.1,2,2,0,0,1-.12-1.76,3,3,0,0,0,2.21-.91,6.45,6.45,0,0,0,1.56-2.17,4.13,4.13,0,0,0,.35-2.29,1.5,1.5,0,0,0-1.31-1.31,4,4,0,0,0-3,.67,7.9,7.9,0,0,0-2.34,2.55,12.17,12.17,0,0,0-1.41,3.58,10.45,10.45,0,0,0-.21,3.74,6,6,0,0,0,1.26,3,4.17,4.17,0,0,0,3,1.46,9.18,9.18,0,0,0,3.58-.29,9.5,9.5,0,0,0,2.82-1.38A10.53,10.53,0,0,0,116.5,60,16.4,16.4,0,0,0,118.1,57.42Z" transform="translate(-1.06 -0.38)"/><path class="cls-1" d="M119.72,65.67a2.9,2.9,0,0,1-1.27,1.81,1,1,0,0,1-1.28-.31,4.08,4.08,0,0,1-.72-2.22,11.36,11.36,0,0,1,.5-4c.16-.61.39-1.43.69-2.48s.66-2.22,1.08-3.51.86-2.68,1.36-4.18,1-3,1.55-4.53a67.78,67.78,0,0,1,3.19-7.68,21.52,21.52,0,0,1,3.06-4.68A7.85,7.85,0,0,1,130,32.18a4.09,4.09,0,0,1,1.87-.51,2,2,0,0,1,1.36.55,2.57,2.57,0,0,1,.69,1.48,8.23,8.23,0,0,1-.74,3.63,28.43,28.43,0,0,1-2.65,5q-1.38,2.1-2.84,4.37t-3.08,4.65c-.16.51-.33,1-.52,1.57s-.37,1.09-.53,1.63c.48-.8,1-1.55,1.48-2.27s1-1.39,1.58-2a13.16,13.16,0,0,1,3.22-2.91,7.22,7.22,0,0,1,3-1.14,3.3,3.3,0,0,1,2.31.5,2.66,2.66,0,0,1,1.08,2,7.22,7.22,0,0,1-.34,2.8,34.7,34.7,0,0,1-1.21,3.43c-.5,1.19-1,2.39-1.56,3.58s-1,2.28-1.38,3.24a10.53,10.53,0,0,0-.69,2.44c-.08.65.09,1,.5,1.17a2,2,0,0,0,1.6-.39,9,9,0,0,0,1.91-1.66A20.4,20.4,0,0,0,137,60.66a33.25,33.25,0,0,0,1.76-3.24c.54-1.21,1-1.81,1.24-1.79s.19.61-.28,1.79c-.26.6-.67,1.48-1.24,2.62a26.25,26.25,0,0,1-2.08,3.44,15.63,15.63,0,0,1-2.74,3,5.09,5.09,0,0,1-3.29,1.26,2.61,2.61,0,0,1-2-.76,4.09,4.09,0,0,1-1-2.12,10.17,10.17,0,0,1,0-3.22,26.52,26.52,0,0,1,1-4.11c.19-.54.41-1.13.65-1.76s.47-1.25.71-1.84.45-1.12.62-1.6.3-.83.36-1.05a4.42,4.42,0,0,0-2.41,1.22,19.76,19.76,0,0,0-3.1,3.27,41.68,41.68,0,0,0-3.1,4.62A28.22,28.22,0,0,0,119.72,65.67ZM127.07,44c-.16.48-.32.93-.48,1.36s-.3.85-.43,1.26l2.39-3.81c.6-1,1.16-1.88,1.69-2.77s1-1.7,1.34-2.41a16.66,16.66,0,0,0,.81-1.84,1.44,1.44,0,0,0,.07-1.1c-.16-.28-.42-.28-.77,0a6.63,6.63,0,0,0-1.24,1.65,34.8,34.8,0,0,0-1.59,3.15Q128,41.44,127.07,44Z" transform="translate(-1.06 -0.38)"/><path class="cls-1" d="M150.88,58.66a6.59,6.59,0,0,1-2.72.93,7.4,7.4,0,0,1-2.51-.19,7.63,7.63,0,0,1-2.12-.91A6.68,6.68,0,0,1,142,57.23a9.87,9.87,0,0,0,.1,2.38,5.86,5.86,0,0,0,.71,2,4.29,4.29,0,0,0,1.39,1.48,4.76,4.76,0,0,0,2.09.72,9.37,9.37,0,0,0,3.61-.29,9.49,9.49,0,0,0,2.84-1.38A10.53,10.53,0,0,0,154.91,60a16.4,16.4,0,0,0,1.6-2.62,2.93,2.93,0,0,1,.5-.77.85.85,0,0,1,.43-.31q.17,0,.21.24a1.71,1.71,0,0,1-.19.84,19.43,19.43,0,0,1-2.55,4.65,16.67,16.67,0,0,1-3.22,3.27,12.48,12.48,0,0,1-3.53,1.88,9.16,9.16,0,0,1-3.46.5,7.42,7.42,0,0,1-3.06-.83,6,6,0,0,1-2.31-2.17,6.36,6.36,0,0,1-1-3.32,12.67,12.67,0,0,1,.53-4,19,19,0,0,1,1.74-4.13,17.5,17.5,0,0,1,2.65-3.62,13.43,13.43,0,0,1,3.24-2.53,6.66,6.66,0,0,1,3.6-.86,5.57,5.57,0,0,1,2.94.86A4.26,4.26,0,0,1,154.57,49a5.71,5.71,0,0,1,.36,2.55,8.81,8.81,0,0,1-.64,2.75,11.3,11.3,0,0,1-1.43,2.5A7.28,7.28,0,0,1,150.88,58.66Zm-1.77-9.83a4.11,4.11,0,0,0-2.41.33,6.4,6.4,0,0,0-2,1.53,9.12,9.12,0,0,0-1.52,2.36,12.22,12.22,0,0,0-.91,2.84,4.11,4.11,0,0,0,1.31.81,4.55,4.55,0,0,0,2.46.14,3.34,3.34,0,0,0,1.67-.71,7.07,7.07,0,0,0,1.43-1.46,9.05,9.05,0,0,0,1-1.79,5.64,5.64,0,0,0,.47-1.81,2.47,2.47,0,0,0-.28-1.48A1.62,1.62,0,0,0,149.11,48.83Z" transform="translate(-1.06 -0.38)"/><path class="cls-1" d="M147.54,39.38q3.09.33,6.65.6t7.14.45a24,24,0,0,1,3.24-5,12.26,12.26,0,0,1,3.13-2.72,3.9,3.9,0,0,1,2.55-.62,1.9,1.9,0,0,1,1.52,1.27,5.14,5.14,0,0,1,0,2.93A14.27,14.27,0,0,1,170,40.62l-.14.24,5.06.14c1.4,0,2.33,0,2.81,0a4.53,4.53,0,0,1,1.43.19c.35.13.54.27.55.43s-.14.3-.45.43a5,5,0,0,1-1.53.24l-9,.29c-.7,1.11-1.4,2.18-2.1,3.22s-1.36,2-2,2.88-1.18,1.68-1.69,2.36-.93,1.24-1.24,1.65c-.48,1.69-.85,3.28-1.12,4.77a21.7,21.7,0,0,0-.41,3.94,7.07,7.07,0,0,0,.43,2.72A1.77,1.77,0,0,0,162,65.34a3.2,3.2,0,0,0,2.25-.72,12.75,12.75,0,0,0,2.26-2.12,22.33,22.33,0,0,0,2-2.67,19.12,19.12,0,0,0,1.31-2.41,2.31,2.31,0,0,1,.48-.77,1,1,0,0,1,.45-.31c.11,0,.18.07.22.24a1.75,1.75,0,0,1-.2.84c-.28.7-.72,1.63-1.31,2.79a25.07,25.07,0,0,1-2.1,3.41,15.09,15.09,0,0,1-2.74,2.89,5.19,5.19,0,0,1-3.29,1.21,3.73,3.73,0,0,1-3.41-2,11.35,11.35,0,0,1-1.36-5.2,31.09,31.09,0,0,1,.59-7.45,51.45,51.45,0,0,1,2.51-8.73l.57-1.43-9.26.33a6.35,6.35,0,0,1-3.29-.59,5.09,5.09,0,0,1-1.88-1.48,1.18,1.18,0,0,1-.15-1.41C145.87,39.4,146.52,39.25,147.54,39.38Zm17.7,3.39c-.54,1.33-1,2.53-1.39,3.6l-.9,2.55c.63-.92,1.3-1.9,2-3s1.38-2.13,2.05-3.24h-.86C165.86,42.72,165.56,42.74,165.24,42.77ZM168.58,40a10.78,10.78,0,0,0,1.36-3c.11-.67,0-1-.34-.93s-.82.46-1.45,1.24a16.44,16.44,0,0,0-2,3.41l1,.07c.31,0,.65,0,1,0Z" transform="translate(-1.06 -0.38)"/><text class="cls-2" transform="translate(178.31 60.39)"> </text><path class="cls-3" d="M192,73.17A3.06,3.06,0,0,0,187.08,76a2.91,2.91,0,0,0,1.16,2,3.06,3.06,0,0,0,4.92-2.81A3,3,0,0,0,192,73.17Z" transform="translate(-1.06 -0.38)"/><path class="cls-3" d="M145.25,78.26a3,3,0,0,0-2,1.17,2.91,2.91,0,0,0-.61,2.26,2.86,2.86,0,0,0,.83,1.74l3.71-4.8A3,3,0,0,0,145.25,78.26Z" transform="translate(-1.06 -0.38)"/><path class="cls-3" d="M175.67,75.26a3.07,3.07,0,0,0-4.3.56,3.08,3.08,0,0,0,.55,4.3,3,3,0,0,0,2.27.61,2.94,2.94,0,0,0,2-1.17,2.91,2.91,0,0,0,.64-1.66l-.15-1.19A3,3,0,0,0,175.67,75.26Z" transform="translate(-1.06 -0.38)"/><path class="cls-3" d="M138,76.88a5,5,0,0,0-3.83-.81h0l1.21,9.47h0a5,5,0,0,0,3.5-1.75,4.94,4.94,0,0,0-.89-6.91Z" transform="translate(-1.06 -0.38)"/><path class="cls-3" d="M204.32,65.09,1.43,90.42l1.91,15.29L206.23,80.38Zm-86.1,23.29-1.38-10.73.61-.08,1.37,10.73Zm9.1-1.18-.17-1.34a3.27,3.27,0,0,1-.32.5,3.71,3.71,0,0,1-6.62-1.79,3.63,3.63,0,0,1,.74-2.75,3.71,3.71,0,0,1,5.21-.66,3.31,3.31,0,0,1,.44.4l-.12-.94.6-.07.85,6.58Zm12-3a5.57,5.57,0,0,1-3.91,2h-.05l-.6.08L133.4,75.53l.61-.08h0a5.55,5.55,0,0,1,4.29.93,5.55,5.55,0,0,1,1,7.78Zm9.24-.6A3.61,3.61,0,0,1,146.12,85a3.72,3.72,0,1,1,1.44-6.88l.36.25.12.11-.39.51-3.74,4.84a2.89,2.89,0,0,0,2.12.52,3,3,0,0,0,2-1.17,2.4,2.4,0,0,0,.18-.26l.67.15A5,5,0,0,1,148.58,83.57Zm5.32-.19a1.9,1.9,0,0,1-1.31.75,1.88,1.88,0,0,1-1.46-.4,1.8,1.8,0,0,1-.73-1.18l.58-.23a1.34,1.34,0,0,0,.53.93,1.28,1.28,0,0,0,1,.27,1.32,1.32,0,0,0,.91-.52,1.3,1.3,0,0,0,.27-1,1.31,1.31,0,0,0-.52-.9,5.15,5.15,0,0,0-.94-.52,4.93,4.93,0,0,1-1.16-.57,1.5,1.5,0,0,1-.6-1.06,1.58,1.58,0,0,1,1.37-1.79,1.52,1.52,0,0,1,1.14.29,1.39,1.39,0,0,1,.54.91v0l-.5.28a1.26,1.26,0,0,0-.41-.73.9.9,0,0,0-.69-.17,1,1,0,0,0-.66.38.94.94,0,0,0-.2.73,1,1,0,0,0,.38.65,5.34,5.34,0,0,0,.77.42,5.53,5.53,0,0,1,1.33.67,2,2,0,0,1,.36,2.77Zm3.7-.06-.6.08-.77-6-1.34.17-.07-.6,1.34-.17L155.8,74l.6-.08.36,2.8,1.34-.17.08.6-1.34.17Zm2-8.7a.6.6,0,0,1,.12-.45.61.61,0,0,1,.41-.23.62.62,0,0,1,.45.12.59.59,0,0,1,.23.4.56.56,0,0,1-.13.45.57.57,0,0,1-.4.23.62.62,0,0,1-.45-.12A.59.59,0,0,1,159.55,74.62Zm1.37,8.27-.84-6.58.6-.07.84,6.58Zm7.27-.93-.56-4.35a1.91,1.91,0,0,0-.79-1.35,2,2,0,0,0-1.51-.41,2,2,0,0,0-1.36.77,2.34,2.34,0,0,0-.4.74l.66,5.11-.6.08L162.78,76l.6-.08.06.42a2.66,2.66,0,0,1,1.81-1.06,2.55,2.55,0,0,1,3,2.23l.56,4.4Zm9-1.16-.17-1.34a3.84,3.84,0,0,1-.32.5,3.71,3.71,0,0,1-5.21.66,3.55,3.55,0,0,1-1.41-2.46,3.71,3.71,0,0,1,5.95-3.41,5.66,5.66,0,0,1,.44.4l-.12-.93.6-.08.85,6.58Zm4.27-.55-.6.08-.77-6-1.34.17-.08-.6,1.34-.17-.36-2.8.61-.08.36,2.8L182,73.5l.08.6-1.34.17Zm1.71-8.67a.56.56,0,0,1,.13-.45.58.58,0,0,1,.4-.22.56.56,0,0,1,.45.11.59.59,0,0,1,.23.4.6.6,0,0,1-.12.45.62.62,0,0,1-.41.24.58.58,0,0,1-.44-.12A.62.62,0,0,1,183.21,71.58Zm1.37,8.28-.84-6.58.6-.08.84,6.58Zm8.48-2a3.73,3.73,0,1,1,.74-2.74A3.6,3.6,0,0,1,193.06,77.86Zm7.55-.06-.56-4.35a1.91,1.91,0,0,0-.79-1.35,2,2,0,0,0-1.51-.41,2,2,0,0,0-1.36.76,2.35,2.35,0,0,0-.4.74l.66,5.12-.6.07-.85-6.58.6-.07.06.42a2.64,2.64,0,0,1,4.79,1.17l.56,4.4Z" transform="translate(-1.06 -0.38)"/><path class="cls-3" d="M125.76,81.67a3.06,3.06,0,0,0-4.91,2.82,2.89,2.89,0,0,0,1.16,2,2.94,2.94,0,0,0,2.27.61,2.89,2.89,0,0,0,2-1.16,2.93,2.93,0,0,0,.64-1.66l-.15-1.19A2.93,2.93,0,0,0,125.76,81.67Z" transform="translate(-1.06 -0.38)"/><path class="cls-1" d="M178.22,57.7a2.48,2.48,0,0,0-.35-.45,2.34,2.34,0,0,0-3.3,0,2.18,2.18,0,0,0-.69,1.63,2.25,2.25,0,0,0,.54,1.48l-.1.1c1.88,1.23,2.82,2.69,2.82,4.4q0,3.08-3.57,5.66l.59.66q6.28-4.8,6.29-9A5.89,5.89,0,0,0,178.22,57.7Z" transform="translate(-1.06 -0.38)"/><path class="cls-4" d="M199.38,27.23a9.35,9.35,0,0,1-11.84,5.9l-8.87-3q1.49-4.44,3-8.88a9.36,9.36,0,0,1,17.75,5.94Z" transform="translate(-1.06 -0.38)"/><path class="cls-5" d="M179.53,4.31a9.37,9.37,0,0,1-2.2,13.05l-7.62,5.43-5.43-7.63A9.36,9.36,0,1,1,179.53,4.31Z" transform="translate(-1.06 -0.38)"/><path class="cls-6" d="M199.28,56.12a9.37,9.37,0,0,1-12.6-4.07l-4.26-8.33,8.33-4.26a9.36,9.36,0,0,1,8.53,16.66Z" transform="translate(-1.06 -0.38)"/></svg>